#N canvas 608 268 529 407 10;
#X declare -lib libdir -lib iemlib -lib iemlib/iemlib2;
#X obj 33 300 r \$0-rcv;
#X obj 33 324 outlet;
#X obj 33 35 inlet;
#X obj 33 59 route get set;
#X obj 306 74 dollarg;
#X obj 306 96 list split 1;
#X obj 33 263 s \$1-setap-snd;
#X obj 33 196 list trim;
#X text 18 1 arg: ref [list...] child;
#X obj 290 30 inlet set_list_and_child;
#X obj 33 174 list append _get_val_ \$0-rcv;
#X obj 33 149 list;
#X obj 306 53 loadbang;
#X obj 290 130 t a;
#X obj 209 218 list trim;
#X obj 209 196 list prepend;
#X obj 21 345 declare -lib libdir -lib iemlib -lib iemlib/iemlib2;
#X obj 152 106 list prepend symbol;
#X obj 78 83 route float;
#X connect 0 0 1 0;
#X connect 2 0 3 0;
#X connect 3 0 11 0;
#X connect 3 1 18 0;
#X connect 4 0 5 0;
#X connect 5 1 13 0;
#X connect 7 0 6 0;
#X connect 9 0 13 0;
#X connect 10 0 7 0;
#X connect 11 0 10 0;
#X connect 12 0 4 0;
#X connect 13 0 11 1;
#X connect 13 0 15 1;
#X connect 14 0 6 0;
#X connect 15 0 14 0;
#X connect 17 0 15 0;
#X connect 18 0 15 0;
#X connect 18 1 17 0;
